<?xml version="1.0" encoding="UTF-8"?>
<svg width="119px" height="108px" viewBox="0 0 119 108" version="1.1" xmlns="http://www.w3.org/2000/svg"
    xmlns:xlink="http://www.w3.org/1999/xlink">
    <title>radash</title>
    <defs>
        <linearGradient x1="20.00564%" y1="9.867035%" x2="79.663818%" y2="90.306778%" id="linearGradient-1">
            <stop stop-color="#DB3942" offset="0%"></stop>
            <stop stop-color="#F85146" offset="31%"></stop>
            <stop stop-color="#FE5949" offset="63%"></stop>
            <stop stop-color="#FE5949" offset="94%"></stop>
            <stop stop-color="#E54B43" offset="100%"></stop>
        </linearGradient>
        <linearGradient x1="-5.229678%" y1="12.666516%" x2="99.862846%" y2="90.221779%" id="linearGradient-2">
            <stop stop-color="#52002F" offset="0%"></stop>
            <stop stop-color="#4F0028" offset="100%"></stop>
        </linearGradient>
    </defs>
    <g id="Page-1" stroke="none" stroke-width="1" fill="none" fill-rule="evenodd">
        <g id="radash" transform="translate(0.2612, 0.6589)" fill-rule="nonzero">
            <g id="Group"
                transform="translate(59.2221, 53.5937) scale(-1, 1) rotate(-180) translate(-59.2221, -53.5937)translate(0, 0)">
                <path
                    d="M47.4453409,88.8220937 C51.0608769,88.8220937 54.3204479,88.9305347 57.5333819,88.3635457 C69.4640209,86.2581387 79.2194379,78.5893877 84.8994879,68.0407277 C86.2336629,65.5629717 87.2190729,62.5999947 87.7057949,59.8419027 C87.8368969,59.0989947 88.1249509,58.3837837 88.2560519,57.6408757 C88.9122239,53.9225667 89.0981869,49.6347867 88.4394709,45.9020637 C86.0637479,32.4396327 77.0983369,20.3926567 63.8796779,15.9864407 C60.8524379,14.9773567 57.7304039,13.9734057 54.5069689,13.8037517 C49.9736699,13.5651567 44.9640789,13.6954017 40.6221569,15.1427077 C27.2177999,19.6108287 16.7222439,30.0693087 14.2098309,44.3063167 C11.6524459,58.7981657 17.0259089,71.8621677 28.2046959,81.0084457 C30.7585709,83.0979817 33.9236189,85.0424147 37.0638279,86.0891527 C40.2291379,87.1442547 43.5643139,88.6386747 47.4453409,88.8220937 Z"
                    id="Path" fill="url(#linearGradient-1)"></path>
                <path
                    d="M107.093178,106.925542 C108.510847,106.675365 110.186319,106.228978 111.330151,105.293113 C113.510983,103.508798 115.286395,101.535577 116.630963,99.0385277 C118.110531,96.2907537 120.233866,87.1069007 115.713868,86.3092547 C107.838553,84.9194927 106.778515,93.1383357 104.525313,93.5359587 C103.396167,93.7352207 102.534824,93.0881417 101.865739,92.2703697 C99.3217719,89.1610797 98.8000579,83.9149877 99.4812929,80.0546677 C99.6595629,79.0444587 99.9633809,78.0565007 100.141597,77.0465987 C100.290585,76.2023437 100.466864,75.0387677 101.003668,73.9651597 C101.37405,72.8575567 101.354942,71.6994767 101.498901,70.8837217 C102.990631,62.4305717 103.30585,51.6415777 101.810715,43.1691227 C101.280572,40.1650007 100.290636,37.3232547 99.5363159,33.9798337 C99.0065499,33.1851837 95.7769539,25.6487217 94.8407959,23.9101357 C93.5478049,21.5088727 90.3413889,18.8915197 89.0814369,16.9218727 C87.6117979,15.4066657 86.5616989,13.6847197 85.1379299,12.5198187 C84.0279329,11.6116397 82.9097719,10.7134547 81.7997039,9.80522073 C79.5888989,7.99637673 76.9425489,6.73833373 74.4629459,5.40316673 C72.3816519,4.28246673 70.2871089,3.39982173 68.0432839,2.65188273 C67.3552729,2.42254273 66.6173849,2.42113873 65.9339659,2.19333573 C55.3108579,-1.34770327 43.6963799,-0.298759269 33.2487169,3.18379073 C28.0133859,4.92890473 23.6080969,8.26852373 18.6485689,11.2358867 C17.7141819,12.2827487 14.5471629,15.5793257 13.6962579,16.0047787 C13.6962579,14.1140347 13.9785109,4.94328373 13.3294199,3.89912873 L12.7791629,3.89912873 C12.0191349,0.859016731 7.34091787,-0.554936269 4.43360187,0.414169731 C3.40719087,0.756306731 2.80264687,1.64233973 1.59060787,2.24835873 L1.22376987,3.16545373 C0.700043869,3.16545373 0.702122869,3.65849273 0.490094869,4.08254773 C-0.325708131,6.08099173 0.123256869,17.8449617 0.123256869,20.4985427 C0.123256869,28.3244167 0.123256869,36.1502907 0.123256869,43.9761647 C0.123256869,47.4446797 -0.0590081314,50.9680107 0.123256869,54.4310437 C0.251234869,56.8626277 1.22376987,59.7990467 1.22376987,62.5931867 C1.22376987,63.7719387 1.62917087,64.7448237 1.88407887,65.5095467 C3.54119287,70.4808907 5.41788687,75.0288957 8.34042487,79.4127017 C20.1328489,97.1013377 40.3068859,105.278619 61.2201029,101.588051 C67.1553869,100.540648 72.6828839,97.9836487 77.9112259,95.1683877 C80.0527209,94.0152747 82.1085019,92.3178577 83.9823929,90.7846747 C84.4384299,90.4115527 85.0187349,89.4716977 85.6148209,89.3723497 C85.9606029,89.3147197 86.1166389,89.7105147 86.1834209,89.9776327 C86.8675789,92.7142767 87.6866029,95.2847217 89.0264139,97.7729377 C92.5934409,104.39742 99.5421289,108.25808 107.093178,106.925542 Z M47.4453409,88.8220927 C43.5643139,88.6386747 40.2291379,87.1442547 37.0638279,86.0891527 C33.9236189,85.0424147 30.7585709,83.0979817 28.2046959,81.0084457 C17.0259089,71.8621677 11.6524459,58.7981657 14.2098309,44.3063167 C16.7222439,30.0693087 27.2177999,19.6108277 40.6221569,15.1427077 C44.9640789,13.6954017 49.9736699,13.5651567 54.5069689,13.8037517 C57.7304039,13.9734057 60.8524379,14.9773567 63.8796779,15.9864407 C77.0983369,20.3926567 86.0637479,32.4396327 88.4394709,45.9020637 C89.0981869,49.6347867 88.9122239,53.9225667 88.2560519,57.6408757 C88.1249509,58.3837837 87.8368969,59.0989947 87.7057949,59.8419027 C87.2190729,62.5999947 86.2336629,65.5629717 84.8994879,68.0407277 C79.2194379,78.5893877 69.4640209,86.2581387 57.5333819,88.3635457 C54.3204479,88.9305347 51.0608769,88.8220927 47.4453409,88.8220927 Z"
                    id="Shape" fill="url(#linearGradient-2)"></path>
            </g>
        </g>
    </g>
</svg>